<svg xmlns="http://www.w3.org/2000/svg" version="1.1" xmlns:xlink="http://www.w3.org/1999/xlink" xmlns:svgjs="http://svgjs.dev/svgjs" width="2000" height="1247" viewBox="0 0 2000 1247"><g transform="matrix(1,0,0,1,-1.2121212121212466,0.504858299595071)"><svg viewBox="0 0 396 247" data-background-color="#ffffff" preserveAspectRatio="xMidYMid meet" height="1247" width="2000" xmlns="http://www.w3.org/2000/svg" xmlns:xlink="http://www.w3.org/1999/xlink"><defs></defs><g id="tight-bounds" transform="matrix(1,0,0,1,0.2400000000000091,-0.09999999999999432)"><svg viewBox="0 0 395.52 247.2" height="247.2" width="395.52"><g><svg></svg></g><g><svg viewBox="0 0 395.52 247.2" height="247.2" width="395.52"><g transform="matrix(1,0,0,1,75.54432,96.61454472853339)"><svg viewBox="0 0 244.43135999999998 53.970910542933204" height="53.970910542933204" width="244.43135999999998"><g><svg viewBox="0 0 244.43135999999998 53.970910542933204" height="53.970910542933204" width="244.43135999999998"><g><svg viewBox="0 0 319.25271433590996 70.49160830268262" height="53.970910542933204" width="244.43135999999998"><g transform="matrix(1,0,0,1,74.82135433590997,18.243486663960073)"><svg viewBox="0 0 244.43135999999998 34.004634974762475" height="34.004634974762475" width="244.43135999999998"><g><svg viewBox="0 0 244.43135999999998 34.004634974762475" height="34.004634974762475" width="244.43135999999998"><g><svg viewBox="0 0 244.43135999999998 18.3404752419871" height="18.3404752419871" width="244.43135999999998"><g transform="matrix(1,0,0,1,0,0)"><svg width="244.43135999999998" viewBox="0.05000000447034836 -36.45000076293945 495.83001708984375 37.209999084472656" height="18.3404752419871" data-palette-color="#2e2e3a"><path d="M13.92-8.89L13.92-8.89Q14.72-9.03 14.72-9.7 14.72-10.38 14.29-11.22 13.87-12.06 13.04-12.82L13.04-12.82Q10.86-14.77 7.15-14.77L7.15-14.77Q5.32-14.77 3.74-14.16L3.74-14.16Q2.05-15.01 1.05-16.87 0.05-18.73 0.05-20.87L0.05-20.87Q0.05-26.49 4.74-29.54L4.74-29.54Q8.76-32.15 14.67-32.15L14.67-32.15Q19.07-32.15 22.07-31.21 25.07-30.27 26.98-28.81L26.98-28.81Q27.54-27.2 27.54-25.46 27.54-23.73 27.08-22.31 26.61-20.9 25.73-20.04L25.73-20.04Q24.9-20.65 22.73-21.29 20.56-21.92 18.77-21.92 16.99-21.92 16.39-21.7 15.8-21.48 15.8-21.02L15.8-21.02Q15.8-20.8 15.87-20.61L15.87-20.61Q16.72-20.83 18.07-20.83L18.07-20.83Q22.83-20.83 25.83-18.58L25.83-18.58Q29.37-15.89 29.37-10.52L29.37-10.52Q29.37-5.79 25.54-2.66L25.54-2.66Q21.39 0.68 14.38 0.68L14.38 0.68Q10.52 0.68 7.69 0.11 4.86-0.46 2.17-1.9L2.17-1.9Q0.34-4.57 0.34-7.31 0.34-10.06 2.22-11.87 4.1-13.67 6.85-13.67 9.59-13.67 11.34-12.55 13.09-11.43 13.92-8.89ZM31.81-8.37L31.81-15.43 33.32-15.43Q34.54-15.43 34.54-16.24L34.54-16.24Q34.54-16.33 34.49-16.53L34.49-16.53 29.03-16.53Q28.49-18.24 28.49-20.35 28.49-22.46 28.81-23.78L28.81-23.78Q30.2-24.66 32.64-26.46L32.64-26.46Q33.32-28.13 34.42-31.74L34.42-31.74Q34.57-32.23 34.76-32.69L34.76-32.69Q36.67-33.18 39.11-33.18 41.55-33.18 43.92-32.67L43.92-32.67 43.92-26.68 48.14-26.68Q49.56-24.54 49.56-21.63L49.56-21.63Q49.56-20.31 49.19-18.92 48.83-17.53 48.14-16.55L48.14-16.55 44.65-16.55 44.65-12.87Q44.65-9.74 47.26-9.74L47.26-9.74 48.31-9.74Q48.83-7.89 48.83-6.52L48.83-6.52Q48.83-3.15 46.71-1.35 44.6 0.44 40.59 0.44 36.57 0.44 34.19-1.79 31.81-4.03 31.81-8.37L31.81-8.37ZM64.28 0.76L64.28 0.76Q57.51 0.76 53.61-3L53.61-3Q49.6-6.79 49.6-13.37 49.6-19.95 53.73-23.8L53.73-23.8Q57.54-27.39 63.37-27.39 69.21-27.39 72.74-24.18 76.26-20.97 76.26-16.28L76.26-16.28Q76.26-12.11 73.36-9.99L73.36-9.99Q70.67-7.98 66.04-7.98L66.04-7.98Q62.57-7.98 60.18-9.42L60.18-9.42Q59.98-9.28 59.98-8.89L59.98-8.89Q59.98-8.15 61.91-7.54L61.91-7.54Q63.84-6.88 66.29-6.88 68.75-6.88 70.76-7.51 72.77-8.13 73.99-8.98L73.99-8.98Q74.58-8.47 74.93-7.09 75.29-5.71 75.29-4.58 75.29-3.44 75.07-2.56L75.07-2.56Q73.16-0.95 71.16-0.27L71.16-0.27Q68.33 0.76 64.28 0.76ZM63.96-15.77L63.96-15.77Q65.18-15.77 65.18-16.7L65.18-16.7Q65.18-17.58 63.89-17.58 62.59-17.58 62.4-16.19L62.4-16.19Q63.08-15.77 63.96-15.77ZM89.52-11.94L89.52-11.94 89.52-11.35Q89.52-10.94 89.54-10.77L89.54-10.77Q89.84-10.64 90.1-10.64L90.1-10.64Q90.81-10.64 90.81-11.6L90.81-11.6Q90.81-14.09 91.4-20.97L91.4-20.97Q91.72-24.71 91.79-25.37L91.79-25.37Q94.08-26.9 97.29-26.9 100.51-26.9 102.26-25.2L102.26-25.2Q103.83-23.63 103.83-21.14L103.83-21.14Q103.83-19.46 103.36-17.65L103.36-17.65Q101.09-8.89 98.85-3.86L98.85-3.86Q97.65-1.25 95.21-0.29L95.21-0.29Q93.4 0.44 90.06 0.44L90.06 0.44Q88.27 0.44 86.53 0.15 84.78-0.15 83.85-0.54L83.85-0.54Q80.31-7.76 78.02-16.53L78.02-16.53Q77.26-17.29 76.73-18.65 76.19-20.02 76.19-21.48L76.19-21.48Q76.19-24.51 77.65-26.68L77.65-26.68Q77.65-26.68 83.73-26.68L83.73-26.68Q86.93-26.68 88.49-24.88L88.49-24.88Q89.67-23.51 90.01-20.9L90.01-20.9Q89.52-16.36 89.52-11.94ZM118.67 0.76L118.67 0.76Q111.9 0.76 108-3L108-3Q103.99-6.79 103.99-13.37 103.99-19.95 108.12-23.8L108.12-23.8Q111.93-27.39 117.76-27.39 123.6-27.39 127.13-24.18 130.65-20.97 130.65-16.28L130.65-16.28Q130.65-12.11 127.75-9.99L127.75-9.99Q125.06-7.98 120.42-7.98L120.42-7.98Q116.96-7.98 114.57-9.42L114.57-9.42Q114.37-9.28 114.37-8.89L114.37-8.89Q114.37-8.15 116.3-7.54L116.3-7.54Q118.23-6.88 120.68-6.88 123.13-6.88 125.15-7.51 127.16-8.13 128.38-8.98L128.38-8.98Q128.97-8.47 129.32-7.09 129.68-5.71 129.68-4.58 129.68-3.44 129.46-2.56L129.46-2.56Q127.55-0.95 125.55-0.27L125.55-0.27Q122.72 0.76 118.67 0.76ZM118.35-15.77L118.35-15.77Q119.57-15.77 119.57-16.7L119.57-16.7Q119.57-17.58 118.28-17.58 116.98-17.58 116.79-16.19L116.79-16.19Q117.47-15.77 118.35-15.77ZM156.77-8.89L156.77-8.89Q157.58-9.03 157.58-9.7 157.58-10.38 157.15-11.22 156.72-12.06 155.89-12.82L155.89-12.82Q153.72-14.77 150.01-14.77L150.01-14.77Q148.18-14.77 146.59-14.16L146.59-14.16Q144.91-15.01 143.91-16.87 142.9-18.73 142.9-20.87L142.9-20.87Q142.9-26.49 147.59-29.54L147.59-29.54Q151.62-32.15 157.53-32.15L157.53-32.15Q161.92-32.15 164.93-31.21 167.93-30.27 169.83-28.81L169.83-28.81Q170.4-27.2 170.4-25.46 170.4-23.73 169.93-22.31 169.47-20.9 168.59-20.04L168.59-20.04Q167.76-20.65 165.59-21.29 163.41-21.92 161.63-21.92 159.85-21.92 159.25-21.7 158.65-21.48 158.65-21.02L158.65-21.02Q158.65-20.8 158.73-20.61L158.73-20.61Q159.58-20.83 160.92-20.83L160.92-20.83Q165.68-20.83 168.69-18.58L168.69-18.58Q172.23-15.89 172.23-10.52L172.23-10.52Q172.23-5.79 168.39-2.66L168.39-2.66Q164.24 0.68 157.24 0.68L157.24 0.68Q153.38 0.68 150.55 0.11 147.71-0.46 145.03-1.9L145.03-1.9Q143.2-4.57 143.2-7.31 143.2-10.06 145.08-11.87 146.96-13.67 149.7-13.67 152.45-13.67 154.2-12.55 155.94-11.43 156.77-8.89ZM187.14 0.76L187.14 0.76Q180.79 0.76 177.02-3.16 173.25-7.08 173.25-13.67 173.25-20.26 177.52-24.1L177.52-24.1Q181.33-27.51 187.04-27.51L187.04-27.51Q192.12-27.51 195.47-25.01 198.81-22.51 198.81-18.21L198.81-18.21Q198.81-15.23 196.97-13.37 195.12-11.5 192.12-11.5L192.12-11.5Q189.68-11.5 188.06-12.81 186.43-14.11 186.14-16.21L186.14-16.21Q185.07-16.21 185.07-15.43L185.07-15.43Q185.07-13.65 186.82-12.16L186.82-12.16Q188.85-10.4 191.86-10.4 194.88-10.4 196.86-11.69L196.86-11.69Q198.08-9.81 198.08-7.13L198.08-7.13Q198.08-4 195.39-1.78L195.39-1.78Q192.32 0.76 187.14 0.76ZM207.4 0.32L207.4 0.32Q204.5 0.32 202.76-0.73L202.76-0.73Q200.83-1.83 200.83-3.98L200.83-3.98 200.83-16.55Q199.39-18.58 199.39-21.55 199.39-24.51 200.83-26.68L200.83-26.68 204.57-26.68Q207.45-26.68 208.7-24.83L208.7-24.83Q208.09-24.15 207.62-23.1 207.16-22.05 207.16-21.59 207.16-21.14 207.39-20.92 207.62-20.7 208.06-20.7L208.06-20.7Q208.92-24.1 211.31-25.68L211.31-25.68Q213.29-27.03 216.19-27.03L216.19-27.03Q219.8-27.03 221.86-25.49L221.86-25.49Q222.59-23.54 222.59-20.72 222.59-17.9 221.46-15.6L221.46-15.6Q220.63-15.16 219.17-14.86 217.7-14.55 216.22-14.55 214.73-14.55 213.54-14.76 212.36-14.97 211.82-15.14L211.82-15.14Q211.63-14.94 211.63-14.58 211.63-14.21 212.1-14.03 212.58-13.84 213.7-13.62L213.7-13.62 213.7-1.37Q211.04 0.32 207.4 0.32ZM237.67 0.76L237.67 0.76Q230.91 0.76 227-3L227-3Q223-6.79 223-13.37 223-19.95 227.13-23.8L227.13-23.8Q230.93-27.39 236.77-27.39 242.6-27.39 246.13-24.18 249.66-20.97 249.66-16.28L249.66-16.28Q249.66-12.11 246.75-9.99L246.75-9.99Q244.07-7.98 239.43-7.98L239.43-7.98Q235.96-7.98 233.57-9.42L233.57-9.42Q233.38-9.28 233.38-8.89L233.38-8.89Q233.38-8.15 235.3-7.54L235.3-7.54Q237.23-6.88 239.69-6.88 242.14-6.88 244.15-7.51 246.17-8.13 247.39-8.98L247.39-8.98Q247.98-8.47 248.33-7.09 248.68-5.71 248.68-4.58 248.68-3.44 248.46-2.56L248.46-2.56Q246.56-0.95 244.56-0.27L244.56-0.27Q241.73 0.76 237.67 0.76ZM237.36-15.77L237.36-15.77Q238.58-15.77 238.58-16.7L238.58-16.7Q238.58-17.58 237.28-17.58 235.99-17.58 235.79-16.19L235.79-16.19Q236.48-15.77 237.36-15.77ZM265.31 0.76L265.31 0.76Q258.54 0.76 254.64-3L254.64-3Q250.63-6.79 250.63-13.37 250.63-19.95 254.76-23.8L254.76-23.8Q258.57-27.39 264.4-27.39 270.24-27.39 273.77-24.18 277.29-20.97 277.29-16.28L277.29-16.28Q277.29-12.11 274.39-9.99L274.39-9.99Q271.7-7.98 267.06-7.98L267.06-7.98Q263.6-7.98 261.21-9.42L261.21-9.42Q261.01-9.28 261.01-8.89L261.01-8.89Q261.01-8.15 262.94-7.54L262.94-7.54Q264.87-6.88 267.32-6.88 269.77-6.88 271.79-7.51 273.8-8.13 275.02-8.98L275.02-8.98Q275.61-8.47 275.96-7.09 276.32-5.71 276.32-4.58 276.32-3.44 276.1-2.56L276.1-2.56Q274.19-0.95 272.19-0.27L272.19-0.27Q269.36 0.76 265.31 0.76ZM264.99-15.77L264.99-15.77Q266.21-15.77 266.21-16.7L266.21-16.7Q266.21-17.58 264.92-17.58 263.62-17.58 263.43-16.19L263.43-16.19Q264.11-15.77 264.99-15.77ZM304.71-17.09L304.64-12.08Q304.64-10.33 305.03-9.25 305.42-8.18 306.39-7.57L306.39-7.57Q306.42-7.45 306.42-7.1L306.42-7.1 306.42-6.67Q306.42-3.3 304.48-1.43 302.54 0.44 299.47 0.44 296.41 0.44 294.5-1.29L294.5-1.29Q292.28-3.27 292.28-7.3L292.28-7.3Q292.28-9.01 292.44-10.31 292.6-11.62 292.66-12.18 292.72-12.74 292.79-13.23 292.87-13.72 292.87-14.67 292.87-15.63 292.61-16.04 292.36-16.46 291.9-16.46 291.45-16.46 291.11-16.26L291.11-16.26 291.43-12.28Q290.99-9.81 290.99-7.06 290.99-4.3 292.23-2.03L292.23-2.03Q289.84 0.44 285.52 0.44L285.52 0.44Q283.05 0.44 281.25-0.85L281.25-0.85Q279.15-2.32 279.15-4.74L279.15-4.74 279.15-16.55Q277.71-18.58 277.71-21.55 277.71-24.51 279.15-26.68L279.15-26.68 283.49-26.68Q285.23-26.68 286.45-25.39L286.45-25.39Q285.37-24.39 285.37-23.73L285.37-23.73Q285.37-22.97 286.23-22.97L286.23-22.97Q287.3-24.83 289.51-26.05 291.72-27.27 294.53-27.27L294.53-27.27Q298.75-27.27 301.39-25.2L301.39-25.2Q304.71-22.58 304.71-17.09L304.71-17.09ZM331.85-8.89L331.85-8.89Q332.66-9.03 332.66-9.7 332.66-10.38 332.23-11.22 331.8-12.06 330.97-12.82L330.97-12.82Q328.8-14.77 325.09-14.77L325.09-14.77Q323.26-14.77 321.67-14.16L321.67-14.16Q319.99-15.01 318.99-16.87 317.99-18.73 317.99-20.87L317.99-20.87Q317.99-26.49 322.67-29.54L322.67-29.54Q326.7-32.15 332.61-32.15L332.61-32.15Q337-32.15 340.01-31.21 343.01-30.27 344.91-28.81L344.91-28.81Q345.48-27.2 345.48-25.46 345.48-23.73 345.01-22.31 344.55-20.9 343.67-20.04L343.67-20.04Q342.84-20.65 340.67-21.29 338.49-21.92 336.71-21.92 334.93-21.92 334.33-21.7 333.73-21.48 333.73-21.02L333.73-21.02Q333.73-20.8 333.81-20.61L333.81-20.61Q334.66-20.83 336-20.83L336-20.83Q340.76-20.83 343.77-18.58L343.77-18.58Q347.31-15.89 347.31-10.52L347.31-10.52Q347.31-5.79 343.47-2.66L343.47-2.66Q339.32 0.68 332.32 0.68L332.32 0.68Q328.46 0.68 325.63 0.11 322.79-0.46 320.11-1.9L320.11-1.9Q318.28-4.57 318.28-7.31 318.28-10.06 320.16-11.87 322.04-13.67 324.78-13.67 327.53-13.67 329.28-12.55 331.02-11.43 331.85-8.89ZM363 0.76L363 0.76Q356.24 0.76 352.33-3L352.33-3Q348.33-6.79 348.33-13.37 348.33-19.95 352.46-23.8L352.46-23.8Q356.26-27.39 362.1-27.39 367.93-27.39 371.46-24.18 374.99-20.97 374.99-16.28L374.99-16.28Q374.99-12.11 372.08-9.99L372.08-9.99Q369.4-7.98 364.76-7.98L364.76-7.98Q361.29-7.98 358.9-9.42L358.9-9.42Q358.71-9.28 358.71-8.89L358.71-8.89Q358.71-8.15 360.63-7.54L360.63-7.54Q362.56-6.88 365.02-6.88 367.47-6.88 369.48-7.51 371.5-8.13 372.72-8.98L372.72-8.98Q373.3-8.47 373.66-7.09 374.01-5.71 374.01-4.58 374.01-3.44 373.79-2.56L373.79-2.56Q371.89-0.95 369.89-0.27L369.89-0.27Q367.05 0.76 363 0.76ZM362.68-15.77L362.68-15.77Q363.91-15.77 363.91-16.7L363.91-16.7Q363.91-17.58 362.61-17.58 361.32-17.58 361.12-16.19L361.12-16.19Q361.81-15.77 362.68-15.77ZM383.41 0.32L383.41 0.32Q380.5 0.32 378.77-0.73L378.77-0.73Q376.84-1.83 376.84-3.98L376.84-3.98 376.84-16.55Q375.4-18.58 375.4-21.55 375.4-24.51 376.84-26.68L376.84-26.68 380.58-26.68Q383.46-26.68 384.7-24.83L384.7-24.83Q384.09-24.15 383.63-23.1 383.17-22.05 383.17-21.59 383.17-21.14 383.4-20.92 383.63-20.7 384.07-20.7L384.07-20.7Q384.92-24.1 387.32-25.68L387.32-25.68Q389.29-27.03 392.2-27.03L392.2-27.03Q395.81-27.03 397.86-25.49L397.86-25.49Q398.6-23.54 398.6-20.72 398.6-17.9 397.47-15.6L397.47-15.6Q396.64-15.16 395.18-14.86 393.71-14.55 392.22-14.55 390.73-14.55 389.55-14.76 388.37-14.97 387.83-15.14L387.83-15.14Q387.63-14.94 387.63-14.58 387.63-14.21 388.11-14.03 388.59-13.84 389.71-13.62L389.71-13.62 389.71-1.37Q387.05 0.32 383.41 0.32ZM412.75-11.94L412.75-11.94 412.75-11.35Q412.75-10.94 412.78-10.77L412.78-10.77Q413.07-10.64 413.34-10.64L413.34-10.64Q414.05-10.64 414.05-11.6L414.05-11.6Q414.05-14.09 414.63-20.97L414.63-20.97Q414.95-24.71 415.02-25.37L415.02-25.37Q417.32-26.9 420.53-26.9 423.74-26.9 425.5-25.2L425.5-25.2Q427.06-23.63 427.06-21.14L427.06-21.14Q427.06-19.46 426.6-17.65L426.6-17.65Q424.33-8.89 422.08-3.86L422.08-3.86Q420.88-1.25 418.44-0.29L418.44-0.29Q416.63 0.44 413.29 0.44L413.29 0.44Q411.51 0.44 409.76 0.15 408.02-0.15 407.09-0.54L407.09-0.54Q403.55-7.76 401.25-16.53L401.25-16.53Q400.5-17.29 399.96-18.65 399.42-20.02 399.42-21.48L399.42-21.48Q399.42-24.51 400.89-26.68L400.89-26.68Q400.89-26.68 406.97-26.68L406.97-26.68Q410.17-26.68 411.73-24.88L411.73-24.88Q412.9-23.51 413.24-20.9L413.24-20.9Q412.75-16.36 412.75-11.94ZM440.92-21.97L440.92-21.97 440.92-12.3Q440.92-8.67 442.68-7.57L442.68-7.57Q442.71-7.45 442.71-7.1L442.71-7.1 442.71-6.67Q442.71-3.08 440.75-1.27L440.75-1.27Q438.95 0.44 435.93 0.44 432.92 0.44 430.96-1.27L430.96-1.27Q428.5-3.44 428.5-7.62L428.5-7.62 428.5-23.49Q428.94-23.8 429.45-24 429.96-24.19 430.52-24.49L430.52-24.49Q429.47-25.02 428.62-26.35 427.77-27.69 427.77-29.47L427.77-29.47Q427.77-32.54 429.79-34.5 431.82-36.45 434.76-36.45 437.7-36.45 439.69-34.46 441.68-32.47 441.68-29.47L441.68-29.47Q441.68-27.05 440.17-25.23 438.65-23.41 436.48-22.95L436.48-22.95Q436.48-22.02 437.19-22.02L437.19-22.02Q438.43-22.02 439.73-23L439.73-23Q440.7-22.24 440.92-21.97ZM456.89 0.76L456.89 0.76Q450.54 0.76 446.77-3.16 443-7.08 443-13.67 443-20.26 447.27-24.1L447.27-24.1Q451.08-27.51 456.79-27.51L456.79-27.51Q461.87-27.51 465.21-25.01 468.56-22.51 468.56-18.21L468.56-18.21Q468.56-15.23 466.72-13.37 464.87-11.5 461.87-11.5L461.87-11.5Q459.43-11.5 457.8-12.81 456.18-14.11 455.89-16.21L455.89-16.21Q454.81-16.21 454.81-15.43L454.81-15.43Q454.81-13.65 456.57-12.16L456.57-12.16Q458.6-10.4 461.61-10.4 464.63-10.4 466.61-11.69L466.61-11.69Q467.83-9.81 467.83-7.13L467.83-7.13Q467.83-4 465.14-1.78L465.14-1.78Q462.06 0.76 456.89 0.76ZM483.89 0.76L483.89 0.76Q477.13 0.76 473.22-3L473.22-3Q469.22-6.79 469.22-13.37 469.22-19.95 473.34-23.8L473.34-23.8Q477.15-27.39 482.98-27.39 488.82-27.39 492.35-24.18 495.88-20.97 495.88-16.28L495.88-16.28Q495.88-12.11 492.97-9.99L492.97-9.99Q490.28-7.98 485.65-7.98L485.65-7.98Q482.18-7.98 479.79-9.42L479.79-9.42Q479.59-9.28 479.59-8.89L479.59-8.89Q479.59-8.15 481.52-7.54L481.52-7.54Q483.45-6.88 485.9-6.88 488.36-6.88 490.37-7.51 492.38-8.13 493.6-8.98L493.6-8.98Q494.19-8.47 494.54-7.09 494.9-5.71 494.9-4.58 494.9-3.44 494.68-2.56L494.68-2.56Q492.77-0.95 490.77-0.27L490.77-0.27Q487.94 0.76 483.89 0.76ZM483.57-15.77L483.57-15.77Q484.79-15.77 484.79-16.7L484.79-16.7Q484.79-17.58 483.5-17.58 482.2-17.58 482.01-16.19L482.01-16.19Q482.69-15.77 483.57-15.77Z" opacity="1" transform="matrix(1,0,0,1,0,0)" fill="#2e2e3a" class="undefined-text-0" data-fill-palette-color="primary" id="text-0"></path></svg></g></svg></g><g transform="matrix(1,0,0,1,0,22.67022127521445)"><svg viewBox="0 0 244.43135999999998 11.334413699548028" height="11.334413699548028" width="244.43135999999998"><g transform="matrix(1,0,0,1,0,0)"><svg width="244.43135999999998" viewBox="-1 -40.20000076293945 877.7100219726562 40.70000076293945" height="11.334413699548028" data-palette-color="#1b2609"><path d="M11.05-35.75L11.05-37 11.05-35.75ZM36.95-37L46.4-37 46.4-35.75Q45.25-36.1 44.6-36.1L44.6-36.1Q43.05-36.1 42.75-35L42.75-35Q42.45-34 40.95-28.05L40.95-28.05Q34.55-2.8 34.45-2.35L34.45-2.35 33.85 0 30.9 0 23.15-26.95 16.9-2.45 16.95-2.35 16.8-2.05 16.3 0 13.4 0 3.6-34Q3.35-35 2.63-35.52 1.9-36.05 0.8-36.05L0.8-36.05Q-0.05-36.05-1-35.75L-1-35.75-1-37 11.05-37 11.05-35.75Q10.1-36.05 9.3-36.05L9.3-36.05Q8.5-36.05 8.05-35.7 7.6-35.35 7.6-34.7L7.6-34.7Q7.6-34.25 7.7-34L7.7-34 16.35-4.4 22.35-29.75 21.1-34Q20.8-35.05 20.38-35.55 19.95-36.05 19.1-36.05L19.1-36.05Q18.5-36.05 17.5-35.75L17.5-35.75 17.5-37 30.45-37 30.45-35.75Q29.45-36.05 28.35-36.05L28.35-36.05Q26.85-36.05 25.88-35.5 24.9-34.95 25.2-34L25.2-34 33.9-4.3 41-34Q41.1-34.3 41.1-34.75L41.1-34.75Q41.1-36.2 39.3-36.2L39.3-36.2Q38.2-36.2 36.95-35.75L36.95-35.75 36.95-37ZM76.79-3Q76.79-1.75 77.04-1.13 77.29-0.5 78.19-0.5L78.19-0.5Q78.59-0.5 79.44-0.75L79.44-0.75 79.44 0 70.94 0 70.94-0.75Q71.79-0.5 72.19-0.5L72.19-0.5Q72.99-0.5 73.22-1.1 73.44-1.7 73.44-3L73.44-3 73.44-17Q73.44-20.4 72.04-22.08 70.64-23.75 68.29-23.75L68.29-23.75Q66.09-23.75 64.77-22.03 63.44-20.3 62.92-17.95 62.39-15.6 62.39-13.45L62.39-13.45 62.39-3Q62.39-1.7 62.62-1.1 62.84-0.5 63.64-0.5L63.64-0.5Q64.04-0.5 64.89-0.75L64.89-0.75 64.89 0 56.24 0 56.24-0.75Q57.09-0.5 57.49-0.5L57.49-0.5Q58.39-0.5 58.64-1.13 58.89-1.75 58.89-3L58.89-3 58.89-37.4Q58.14-37.15 57.29-37.15L57.29-37.15Q56.94-37.15 56.24-37.25L56.24-37.25 56.24-38.6 56.69-38.6Q56.69-38.25 57.07-38 57.44-37.75 57.94-37.75L57.94-37.75Q58.64-37.75 59.19-38.3 59.74-38.85 60.54-40L60.54-40 61.59-40 61.64-19.3 62.34-19.3Q63.24-21.55 64.82-22.98 66.39-24.4 68.74-24.4L68.74-24.4Q70.64-24.4 72.52-23.43 74.39-22.45 75.59-20.63 76.79-18.8 76.79-16.4L76.79-16.4 76.79-3ZM101.23 0.5Q96.48 0.5 94.13-2.68 91.78-5.85 91.78-11.95L91.78-11.95Q91.78-15.15 92.78-17.98 93.78-20.8 95.91-22.58 98.03-24.35 101.13-24.35L101.13-24.35Q106.18-24.35 108.33-21.28 110.48-18.2 110.48-13.9L110.48-13.9Q110.48-13.15 110.38-11.95L110.38-11.95 110.33-11.5 95.28-11.5Q95.48-0.3 101.53-0.3L101.53-0.3Q104.23-0.3 105.53-1.95 106.83-3.6 106.83-5.7L106.83-5.7Q106.83-6.55 106.41-6.95 105.98-7.35 105.33-7.35L105.33-7.35Q104.83-7.35 104.46-7.08 104.08-6.8 104.08-6.4L104.08-6.4 103.63-6.4 103.63-7.75 109.98-7.75Q110.13-5.85 109.06-3.95 107.98-2.05 105.93-0.8 103.88 0.45 101.23 0.5L101.23 0.5ZM105.68-12.25Q106.58-12.25 106.76-12.43 106.93-12.6 106.98-13.3L106.98-13.3Q107.03-13.85 107.03-14.95L107.03-14.95Q107.03-18.75 105.63-21.25 104.23-23.75 100.93-23.75L100.93-23.75Q97.73-23.75 96.53-20.6 95.33-17.45 95.28-12.25L95.28-12.25 105.68-12.25ZM135.98-20.15Q135.98-19.55 135.78-18.8 135.58-18.05 135.53-17.9L135.53-17.9Q135.13-16.6 135.13-16.15L135.13-16.15Q135.13-15.15 136.58-15.15L136.58-15.15 136.58-14.65Q134.53-14.65 133.65-15.7 132.78-16.75 132.78-18.4L132.78-18.4Q132.78-19.2 132.93-19.95L132.93-19.95Q133.23-21.4 133.23-22.2L133.23-22.2Q133.23-23.05 132.9-23.38 132.58-23.7 131.88-23.7L131.88-23.7Q130.43-23.7 129.63-20.63 128.83-17.55 128.83-13.45L128.83-13.45 128.83-3Q128.83-1.7 129.05-1.1 129.28-0.5 130.08-0.5L130.08-0.5Q130.48-0.5 131.33-0.75L131.33-0.75 131.33 0 123.08 0 123.08-0.75Q123.93-0.5 124.33-0.5L124.33-0.5Q125.23-0.5 125.48-1.13 125.73-1.75 125.73-3L125.73-3 125.73-20.8Q124.98-20.55 124.13-20.55L124.13-20.55Q123.78-20.55 123.08-20.65L123.08-20.65 123.08-22 123.53-22Q123.53-21.65 123.9-21.4 124.28-21.15 124.78-21.15L124.78-21.15Q125.53-21.15 126.08-21.7 126.63-22.25 127.38-23.35L127.38-23.35 127.88-23.35 127.93-19.3 128.43-19.3Q129.03-21.9 130.1-23.13 131.18-24.35 132.38-24.35L132.38-24.35Q134.13-24.35 135.05-23.05 135.98-21.75 135.98-20.15L135.98-20.15ZM157.87 0.5Q153.12 0.5 150.77-2.68 148.42-5.85 148.42-11.95L148.42-11.95Q148.42-15.15 149.42-17.98 150.42-20.8 152.54-22.58 154.67-24.35 157.77-24.35L157.77-24.35Q162.82-24.35 164.97-21.28 167.12-18.2 167.12-13.9L167.12-13.9Q167.12-13.15 167.02-11.95L167.02-11.95 166.97-11.5 151.92-11.5Q152.12-0.3 158.17-0.3L158.17-0.3Q160.87-0.3 162.17-1.95 163.47-3.6 163.47-5.7L163.47-5.7Q163.47-6.55 163.04-6.95 162.62-7.35 161.97-7.35L161.97-7.35Q161.47-7.35 161.09-7.08 160.72-6.8 160.72-6.4L160.72-6.4 160.27-6.4 160.27-7.75 166.62-7.75Q166.77-5.85 165.69-3.95 164.62-2.05 162.57-0.8 160.52 0.45 157.87 0.5L157.87 0.5ZM162.32-12.25Q163.22-12.25 163.39-12.43 163.57-12.6 163.62-13.3L163.62-13.3Q163.67-13.85 163.67-14.95L163.67-14.95Q163.67-18.75 162.27-21.25 160.87-23.75 157.57-23.75L157.57-23.75Q154.37-23.75 153.17-20.6 151.97-17.45 151.92-12.25L151.92-12.25 162.32-12.25ZM207.65 0.5Q204.85 0.5 202.95-1.23 201.05-2.95 201.05-6.15L201.05-6.15Q201.05-8.45 202.6-10.08 204.15-11.7 206-12.3L206-12.3Q206.95-12.6 208.23-12.88 209.5-13.15 209.95-13.25L209.95-13.25Q212.45-13.75 213.7-14.18 214.95-14.6 215.2-15.35L215.2-15.35Q215.2-18.95 213.83-21.35 212.45-23.75 209.25-23.75L209.25-23.75Q207.25-23.75 206.28-22.33 205.3-20.9 205.3-18.5L205.3-18.5Q205.3-17.85 205.55-17.57 205.8-17.3 206.7-17.3L206.7-17.3Q207.25-17.3 207.65-17.55 208.05-17.8 208.05-18.15L208.05-18.15 208.5-18.15 208.5-16.8 201.95-16.8Q201.95-18.6 203-20.38 204.05-22.15 205.9-23.28 207.75-24.4 210-24.4L210-24.4Q213-24.4 214.83-23.03 216.65-21.65 217.43-19.73 218.2-17.8 218.2-15.9L218.2-15.9 218.2-5.05Q218.2-1.3 219.8-1.3L219.8-1.3Q220.3-1.3 220.73-1.98 221.15-2.65 221.15-3.35L221.15-3.35 221.65-3.35Q221.65-1.5 220.53-0.5 219.4 0.5 217.95 0.5L217.95 0.5Q216.25 0.5 215.73-1 215.2-2.5 215.2-5.2L215.2-5.2 215.2-7.5Q215.2-6.8 214.53-4.85 213.85-2.9 212.15-1.2 210.45 0.5 207.65 0.5L207.65 0.5ZM208.8-0.9Q210.5-0.9 211.95-2.25 213.4-3.6 214.25-5.45 215.1-7.3 215.1-8.55L215.1-8.55 215.1-14.25Q215.1-14.1 214.6-13.95 214.1-13.8 213.35-13.65L213.35-13.65Q210.1-12.8 208.6-12.25L208.6-12.25Q206.25-11.4 205.15-9.88 204.05-8.35 204.05-6.45L204.05-6.45Q204.05-4.25 205.28-2.58 206.5-0.9 208.8-0.9L208.8-0.9ZM232.99-0.75Q233.84-0.5 234.24-0.5L234.24-0.5Q235.14-0.5 235.39-1.13 235.64-1.75 235.64-3L235.64-3 235.64-37.25Q235.14-37.1 234.49-37.1L234.49-37.1Q233.79-37.1 232.99-37.25L232.99-37.25 232.99-38.6 233.44-38.6Q233.44-38.3 233.97-38.02 234.49-37.75 234.99-37.75L234.99-37.75Q236.14-37.75 236.99-38.38 237.84-39 237.84-40L237.84-40 238.79-40 238.74-3Q238.74-1.7 238.97-1.1 239.19-0.5 239.99-0.5L239.99-0.5Q240.39-0.5 241.24-0.75L241.24-0.75 241.24 0 232.99 0 232.99-0.75ZM252.59-0.75Q253.44-0.5 253.84-0.5L253.84-0.5Q254.74-0.5 254.99-1.13 255.24-1.75 255.24-3L255.24-3 255.24-37.25Q254.74-37.1 254.09-37.1L254.09-37.1Q253.39-37.1 252.59-37.25L252.59-37.25 252.59-38.6 253.04-38.6Q253.04-38.3 253.56-38.02 254.09-37.75 254.59-37.75L254.59-37.75Q255.74-37.75 256.59-38.38 257.44-39 257.44-40L257.44-40 258.39-40 258.34-3Q258.34-1.7 258.56-1.1 258.79-0.5 259.59-0.5L259.59-0.5Q259.99-0.5 260.84-0.75L260.84-0.75 260.84 0 252.59 0 252.59-0.75ZM301.52 0.5Q297.37 0.5 295.17-2.7L295.17-2.7 294.72 0 294.07 0 294.07-8.95 294.97-8.95Q294.97-4.65 296.37-2.58 297.77-0.5 300.62-0.5L300.62-0.5Q302.97-0.5 304.12-2.13 305.27-3.75 305.27-6.3L305.27-6.3Q305.27-8.35 303.85-9.55 302.42-10.75 299.67-12.05L299.67-12.05Q297.77-12.95 296.67-13.65 295.57-14.35 294.8-15.4 294.02-16.45 294.02-17.95L294.02-17.95Q294.02-21 295.95-22.68 297.87-24.35 300.82-24.35L300.82-24.35Q302.57-24.35 304.15-23.53 305.72-22.7 305.97-21.8L305.97-21.8 306.32-24.35 306.97-24.35 306.97-17.8 306.22-17.8Q306.22-20 304.87-21.75 303.52-23.5 301.32-23.5L301.32-23.5Q297.27-23.5 297.27-19.05L297.27-19.05Q297.27-17.5 298.42-16.55 299.57-15.6 302.07-14.3L302.07-14.3Q304.17-13.2 305.47-12.33 306.77-11.45 307.7-10.05 308.62-8.65 308.62-6.65L308.62-6.65Q308.62-4.95 307.72-3.3 306.82-1.65 305.2-0.58 303.57 0.5 301.52 0.5L301.52 0.5ZM332.56 0.5Q328.86 0.5 326.49-1.25 324.11-3 323.04-5.83 321.96-8.65 321.96-11.95L321.96-11.95Q321.96-15.15 323.06-17.98 324.16-20.8 326.39-22.58 328.61-24.35 331.71-24.35L331.71-24.35Q334.56-24.35 337.04-23.05 339.51-21.75 339.86-19.75L339.86-19.75Q339.96-19.05 339.96-18.8L339.96-18.8Q339.96-17.7 339.41-17.03 338.86-16.35 337.86-16.35L337.86-16.35Q336.11-16.35 336.11-17.45L336.11-17.45Q336.11-17.9 336.36-18.75L336.36-18.75Q336.66-19.75 336.66-20.4L336.66-20.4Q336.66-21.4 335.91-22.18 335.16-22.95 334.11-23.35 333.06-23.75 332.21-23.75L332.21-23.75Q329.06-23.75 327.26-20.63 325.46-17.5 325.46-11.5L325.46-11.5Q325.46-6.65 327.24-3.55 329.01-0.45 332.71-0.45L332.71-0.45Q335.26-0.45 336.91-2 338.56-3.55 339.11-5.8L339.11-5.8 340.21-5.8Q339.51-3.2 337.41-1.35 335.31 0.5 332.56 0.5L332.56 0.5ZM365.45-20.15Q365.45-19.55 365.25-18.8 365.05-18.05 365-17.9L365-17.9Q364.6-16.6 364.6-16.15L364.6-16.15Q364.6-15.15 366.05-15.15L366.05-15.15 366.05-14.65Q364-14.65 363.13-15.7 362.25-16.75 362.25-18.4L362.25-18.4Q362.25-19.2 362.4-19.95L362.4-19.95Q362.7-21.4 362.7-22.2L362.7-22.2Q362.7-23.05 362.38-23.38 362.05-23.7 361.35-23.7L361.35-23.7Q359.9-23.7 359.1-20.63 358.3-17.55 358.3-13.45L358.3-13.45 358.3-3Q358.3-1.7 358.53-1.1 358.75-0.5 359.55-0.5L359.55-0.5Q359.95-0.5 360.8-0.75L360.8-0.75 360.8 0 352.55 0 352.55-0.75Q353.4-0.5 353.8-0.5L353.8-0.5Q354.7-0.5 354.95-1.13 355.2-1.75 355.2-3L355.2-3 355.2-20.8Q354.45-20.55 353.6-20.55L353.6-20.55Q353.25-20.55 352.55-20.65L352.55-20.65 352.55-22 353-22Q353-21.65 353.38-21.4 353.75-21.15 354.25-21.15L354.25-21.15Q355-21.15 355.55-21.7 356.1-22.25 356.85-23.35L356.85-23.35 357.35-23.35 357.4-19.3 357.9-19.3Q358.5-21.9 359.58-23.13 360.65-24.35 361.85-24.35L361.85-24.35Q363.6-24.35 364.53-23.05 365.45-21.75 365.45-20.15L365.45-20.15ZM387.35 0.5Q382.6 0.5 380.25-2.68 377.9-5.85 377.9-11.95L377.9-11.95Q377.9-15.15 378.9-17.98 379.9-20.8 382.02-22.58 384.15-24.35 387.25-24.35L387.25-24.35Q392.3-24.35 394.45-21.28 396.6-18.2 396.6-13.9L396.6-13.9Q396.6-13.15 396.5-11.95L396.5-11.95 396.45-11.5 381.4-11.5Q381.6-0.3 387.65-0.3L387.65-0.3Q390.35-0.3 391.65-1.95 392.95-3.6 392.95-5.7L392.95-5.7Q392.95-6.55 392.52-6.95 392.1-7.35 391.45-7.35L391.45-7.35Q390.95-7.35 390.57-7.08 390.2-6.8 390.2-6.4L390.2-6.4 389.75-6.4 389.75-7.75 396.1-7.75Q396.25-5.85 395.17-3.95 394.1-2.05 392.05-0.8 390 0.45 387.35 0.5L387.35 0.5ZM391.8-12.25Q392.7-12.25 392.87-12.43 393.05-12.6 393.1-13.3L393.1-13.3Q393.15-13.85 393.15-14.95L393.15-14.95Q393.15-18.75 391.75-21.25 390.35-23.75 387.05-23.75L387.05-23.75Q383.85-23.75 382.65-20.6 381.45-17.45 381.4-12.25L381.4-12.25 391.8-12.25ZM419.64 0.5Q414.89 0.5 412.54-2.68 410.19-5.85 410.19-11.95L410.19-11.95Q410.19-15.15 411.19-17.98 412.19-20.8 414.31-22.58 416.44-24.35 419.54-24.35L419.54-24.35Q424.59-24.35 426.74-21.28 428.89-18.2 428.89-13.9L428.89-13.9Q428.89-13.15 428.79-11.95L428.79-11.95 428.74-11.5 413.69-11.5Q413.89-0.3 419.94-0.3L419.94-0.3Q422.64-0.3 423.94-1.95 425.24-3.6 425.24-5.7L425.24-5.7Q425.24-6.55 424.81-6.95 424.39-7.35 423.74-7.35L423.74-7.35Q423.24-7.35 422.86-7.08 422.49-6.8 422.49-6.4L422.49-6.4 422.04-6.4 422.04-7.75 428.39-7.75Q428.54-5.85 427.46-3.95 426.39-2.05 424.34-0.8 422.29 0.45 419.64 0.5L419.64 0.5ZM424.09-12.25Q424.99-12.25 425.16-12.43 425.34-12.6 425.39-13.3L425.39-13.3Q425.44-13.85 425.44-14.95L425.44-14.95Q425.44-18.75 424.04-21.25 422.64-23.75 419.34-23.75L419.34-23.75Q416.14-23.75 414.94-20.6 413.74-17.45 413.69-12.25L413.69-12.25 424.09-12.25ZM461.88-3Q461.88-1.75 462.13-1.13 462.38-0.5 463.28-0.5L463.28-0.5Q463.68-0.5 464.53-0.75L464.53-0.75 464.53 0 456.03 0 456.03-0.75Q456.88-0.5 457.28-0.5L457.28-0.5Q458.08-0.5 458.31-1.1 458.53-1.7 458.53-3L458.53-3 458.53-16.4Q458.53-19.85 457.11-21.8 455.68-23.75 453.38-23.75L453.38-23.75Q451.18-23.75 449.86-22.03 448.53-20.3 448.01-17.95 447.48-15.6 447.48-13.45L447.48-13.45 447.48-3Q447.48-1.7 447.71-1.1 447.93-0.5 448.73-0.5L448.73-0.5Q449.13-0.5 449.98-0.75L449.98-0.75 449.98 0 441.48 0 441.48-0.75Q442.33-0.5 442.73-0.5L442.73-0.5Q443.63-0.5 443.88-1.13 444.13-1.75 444.13-3L444.13-3 444.13-20.75Q443.38-20.5 442.53-20.5L442.53-20.5Q442.18-20.5 441.48-20.6L441.48-20.6 441.48-21.95 441.93-21.95Q441.93-21.6 442.31-21.35 442.68-21.1 443.18-21.1L443.18-21.1Q443.88-21.1 444.43-21.65 444.98-22.2 445.78-23.35L445.78-23.35 446.68-23.35 446.73-19.3 447.43-19.3Q448.33-21.55 449.91-22.98 451.48-24.4 453.83-24.4L453.83-24.4Q455.73-24.4 457.61-23.43 459.48-22.45 460.68-20.63 461.88-18.8 461.88-16.4L461.88-16.4 461.88-3ZM484.37 0.5Q480.22 0.5 478.02-2.7L478.02-2.7 477.57 0 476.92 0 476.92-8.95 477.82-8.95Q477.82-4.65 479.22-2.58 480.62-0.5 483.47-0.5L483.47-0.5Q485.82-0.5 486.97-2.13 488.12-3.75 488.12-6.3L488.12-6.3Q488.12-8.35 486.7-9.55 485.27-10.75 482.52-12.05L482.52-12.05Q480.62-12.95 479.52-13.65 478.42-14.35 477.65-15.4 476.87-16.45 476.87-17.95L476.87-17.95Q476.87-21 478.8-22.68 480.72-24.35 483.67-24.35L483.67-24.35Q485.42-24.35 487-23.53 488.57-22.7 488.82-21.8L488.82-21.8 489.17-24.35 489.82-24.35 489.82-17.8 489.07-17.8Q489.07-20 487.72-21.75 486.37-23.5 484.17-23.5L484.17-23.5Q480.12-23.5 480.12-19.05L480.12-19.05Q480.12-17.5 481.27-16.55 482.42-15.6 484.92-14.3L484.92-14.3Q487.02-13.2 488.32-12.33 489.62-11.45 490.55-10.05 491.47-8.65 491.47-6.65L491.47-6.65Q491.47-4.95 490.57-3.3 489.67-1.65 488.05-0.58 486.42 0.5 484.37 0.5L484.37 0.5ZM536.26 0.5Q532.56 0.5 530.18-1.25 527.81-3 526.73-5.83 525.66-8.65 525.66-11.95L525.66-11.95Q525.66-15.15 526.76-17.98 527.86-20.8 530.08-22.58 532.31-24.35 535.41-24.35L535.41-24.35Q538.26-24.35 540.73-23.05 543.21-21.75 543.56-19.75L543.56-19.75Q543.66-19.05 543.66-18.8L543.66-18.8Q543.66-17.7 543.11-17.03 542.56-16.35 541.56-16.35L541.56-16.35Q539.81-16.35 539.81-17.45L539.81-17.45Q539.81-17.9 540.06-18.75L540.06-18.75Q540.36-19.75 540.36-20.4L540.36-20.4Q540.36-21.4 539.61-22.18 538.86-22.95 537.81-23.35 536.76-23.75 535.91-23.75L535.91-23.75Q532.76-23.75 530.96-20.63 529.16-17.5 529.16-11.5L529.16-11.5Q529.16-6.65 530.93-3.55 532.71-0.45 536.41-0.45L536.41-0.45Q538.96-0.45 540.61-2 542.26-3.55 542.81-5.8L542.81-5.8 543.91-5.8Q543.21-3.2 541.11-1.35 539.01 0.5 536.26 0.5L536.26 0.5ZM566.7 0.5Q561.4 0.5 559.07-2.88 556.75-6.25 556.75-11.95L556.75-11.95Q556.75-17.2 559.1-20.78 561.45-24.35 566.7-24.35L566.7-24.35Q571.95-24.35 574.32-20.78 576.7-17.2 576.7-11.95L576.7-11.95Q576.7-6.25 574.35-2.88 572 0.5 566.7 0.5L566.7 0.5ZM566.7-0.1Q570.1-0.1 571.65-3.38 573.2-6.65 573.2-11.95L573.2-11.95Q573.2-16.9 571.6-20.33 570-23.75 566.7-23.75L566.7-23.75Q563.4-23.75 561.82-20.33 560.25-16.9 560.25-11.95L560.25-11.95Q560.25-6.65 561.8-3.38 563.35-0.1 566.7-0.1L566.7-0.1ZM623.84-3.05Q623.84-1.8 624.09-1.18 624.34-0.55 625.24-0.55L625.24-0.55Q625.64-0.55 626.49-0.8L626.49-0.8 626.49-0.05 617.99-0.05 617.99-0.8Q618.84-0.55 619.24-0.55L619.24-0.55Q620.04-0.55 620.27-1.15 620.49-1.75 620.49-3.05L620.49-3.05 620.49-17.05Q620.49-20.45 618.99-22.13 617.49-23.8 615.14-23.8L615.14-23.8Q613.59-23.8 612.32-22.7 611.04-21.6 610.32-20 609.59-18.4 609.59-17.05L609.59-17.05 609.64-3Q609.64-1.75 609.89-1.13 610.14-0.5 611.04-0.5L611.04-0.5Q611.44-0.5 612.29-0.75L612.29-0.75 612.29 0 604.09 0 604.09-0.75Q604.94-0.5 605.34-0.5L605.34-0.5Q606.14-0.5 606.37-1.1 606.59-1.7 606.59-3L606.59-3 606.59-17Q606.59-20.4 605.19-22.08 603.79-23.75 601.44-23.75L601.44-23.75Q599.14-23.75 597.82-22 596.49-20.25 595.94-17.55L595.94-17.55 595.94-3Q595.94-1.7 596.17-1.1 596.39-0.5 597.19-0.5L597.19-0.5Q597.59-0.5 598.44-0.75L598.44-0.75 598.44 0 589.94 0 589.94-0.75Q590.79-0.5 591.19-0.5L591.19-0.5Q592.04-0.5 592.32-1.15 592.59-1.8 592.59-3.05L592.59-3.05 592.59-20.95Q591.64-20.55 590.54-20.55L590.54-20.55Q590.24-20.55 589.54-20.65L589.54-20.65 589.54-22 589.99-22Q589.99-21.65 590.37-21.4 590.74-21.15 591.24-21.15L591.24-21.15Q591.94-21.15 592.49-21.7 593.04-22.25 593.84-23.4L593.84-23.4 594.74-23.4 594.74-19.3 595.59-19.3Q597.59-24.4 601.89-24.4L601.89-24.4Q603.89-24.4 605.69-23.38 607.49-22.35 608.44-20.5L608.44-20.5Q608.79-19.8 608.79-19.3L608.79-19.3 609.29-19.3Q609.59-20.35 610.47-21.55 611.34-22.75 612.67-23.6 613.99-24.45 615.59-24.45L615.59-24.45Q617.49-24.45 619.42-23.48 621.34-22.5 622.59-20.68 623.84-18.85 623.84-16.45L623.84-16.45 623.84-3.05ZM648.28 0.5Q643.53 0.5 641.18-2.68 638.83-5.85 638.83-11.95L638.83-11.95Q638.83-15.15 639.83-17.98 640.83-20.8 642.96-22.58 645.08-24.35 648.18-24.35L648.18-24.35Q653.23-24.35 655.38-21.28 657.53-18.2 657.53-13.9L657.53-13.9Q657.53-13.15 657.43-11.95L657.43-11.95 657.38-11.5 642.33-11.5Q642.53-0.3 648.58-0.3L648.58-0.3Q651.28-0.3 652.58-1.95 653.88-3.6 653.88-5.7L653.88-5.7Q653.88-6.55 653.46-6.95 653.03-7.35 652.38-7.35L652.38-7.35Q651.88-7.35 651.51-7.08 651.13-6.8 651.13-6.4L651.13-6.4 650.68-6.4 650.68-7.75 657.03-7.75Q657.18-5.85 656.11-3.95 655.03-2.05 652.98-0.8 650.93 0.45 648.28 0.5L648.28 0.5ZM652.73-12.25Q653.63-12.25 653.81-12.43 653.98-12.6 654.03-13.3L654.03-13.3Q654.08-13.85 654.08-14.95L654.08-14.95Q654.08-18.75 652.68-21.25 651.28-23.75 647.98-23.75L647.98-23.75Q644.78-23.75 643.58-20.6 642.38-17.45 642.33-12.25L642.33-12.25 652.73-12.25ZM678.13 0.5Q673.98 0.5 671.78-2.7L671.78-2.7 671.33 0 670.68 0 670.68-8.95 671.58-8.95Q671.58-4.65 672.98-2.58 674.38-0.5 677.23-0.5L677.23-0.5Q679.58-0.5 680.73-2.13 681.88-3.75 681.88-6.3L681.88-6.3Q681.88-8.35 680.45-9.55 679.03-10.75 676.28-12.05L676.28-12.05Q674.38-12.95 673.28-13.65 672.18-14.35 671.4-15.4 670.63-16.45 670.63-17.95L670.63-17.95Q670.63-21 672.55-22.68 674.48-24.35 677.43-24.35L677.43-24.35Q679.18-24.35 680.75-23.53 682.33-22.7 682.58-21.8L682.58-21.8 682.93-24.35 683.58-24.35 683.58-17.8 682.83-17.8Q682.83-20 681.48-21.75 680.13-23.5 677.93-23.5L677.93-23.5Q673.88-23.5 673.88-19.05L673.88-19.05Q673.88-17.5 675.03-16.55 676.18-15.6 678.68-14.3L678.68-14.3Q680.78-13.2 682.08-12.33 683.38-11.45 684.3-10.05 685.23-8.65 685.23-6.65L685.23-6.65Q685.23-4.95 684.33-3.3 683.43-1.65 681.8-0.58 680.18 0.5 678.13 0.5L678.13 0.5ZM724.11 0.5Q722.26 0.5 721.73-0.93 721.21-2.35 721.21-5.1L721.21-5.1 721.21-7.5 721.21-22.65 717.91-22.65 717.91-23.4 721.21-23.4 721.21-28.75Q722.26-28.75 722.78-29.45 723.31-30.15 723.31-30.9L723.31-30.9 724.36-30.9 724.31-23.4 728.41-23.4 728.41-22.65 724.31-22.65 724.26-5.05Q724.26-3.05 724.63-2.18 725.01-1.3 725.86-1.3L725.86-1.3Q726.86-1.3 727.51-2.2 728.16-3.1 728.48-4.23 728.81-5.35 728.81-6L728.81-6 729.31-6Q729.31-4.6 728.66-3.08 728.01-1.55 726.83-0.53 725.66 0.5 724.11 0.5L724.11 0.5ZM751.6 0.5Q746.3 0.5 743.98-2.88 741.65-6.25 741.65-11.95L741.65-11.95Q741.65-17.2 744-20.78 746.35-24.35 751.6-24.35L751.6-24.35Q756.85-24.35 759.23-20.78 761.6-17.2 761.6-11.95L761.6-11.95Q761.6-6.25 759.25-2.88 756.9 0.5 751.6 0.5L751.6 0.5ZM751.6-0.1Q755-0.1 756.55-3.38 758.1-6.65 758.1-11.95L758.1-11.95Q758.1-16.9 756.5-20.33 754.9-23.75 751.6-23.75L751.6-23.75Q748.3-23.75 746.73-20.33 745.15-16.9 745.15-11.95L745.15-11.95Q745.15-6.65 746.7-3.38 748.25-0.1 751.6-0.1L751.6-0.1ZM794.79-0.75Q795.64-0.5 796.04-0.5L796.04-0.5Q796.94-0.5 797.19-1.13 797.44-1.75 797.44-3L797.44-3 797.44-37.25Q796.94-37.1 796.29-37.1L796.29-37.1Q795.59-37.1 794.79-37.25L794.79-37.25 794.79-38.6 795.24-38.6Q795.24-38.3 795.76-38.02 796.29-37.75 796.79-37.75L796.79-37.75Q797.94-37.75 798.79-38.38 799.64-39 799.64-40L799.64-40 800.59-40 800.54-3Q800.54-1.7 800.76-1.1 800.99-0.5 801.79-0.5L801.79-0.5Q802.19-0.5 803.04-0.75L803.04-0.75 803.04 0 794.79 0 794.79-0.75ZM819.78-26.6Q818.88-26.6 818.28-27.15 817.68-27.7 817.68-28.55L817.68-28.55Q817.68-29.4 818.28-29.95 818.88-30.5 819.78-30.5L819.78-30.5Q820.68-30.5 821.3-29.93 821.93-29.35 821.93-28.55L821.93-28.55Q821.93-27.7 821.33-27.15 820.73-26.6 819.78-26.6L819.78-26.6ZM815.38-0.75Q816.23-0.5 816.63-0.5L816.63-0.5Q817.53-0.5 817.78-1.13 818.03-1.75 818.03-3L818.03-3 818.03-20.8Q817.28-20.55 816.43-20.55L816.43-20.55Q816.08-20.55 815.38-20.65L815.38-20.65 815.38-22 815.83-22Q815.83-21.65 816.2-21.4 816.58-21.15 817.08-21.15L817.08-21.15Q817.78-21.15 818.33-21.7 818.88-22.25 819.68-23.4L819.68-23.4 821.13-23.4 821.13-3Q821.13-1.7 821.35-1.1 821.58-0.5 822.38-0.5L822.38-0.5Q822.78-0.5 823.63-0.75L823.63-0.75 823.63 0 815.38 0 815.38-0.75ZM836.27-0.75Q837.12-0.5 837.52-0.5L837.52-0.5Q838.42-0.5 838.67-1.13 838.92-1.75 838.92-3L838.92-3 838.92-22.65 835.47-22.65 835.47-23.4 838.92-23.4 838.92-32.15Q838.92-35.1 839.92-36.9 840.92-38.7 842.27-39.45 843.62-40.2 844.87-40.2L844.87-40.2Q847.17-40.2 848.47-39.08 849.77-37.95 849.77-35.8L849.77-35.8Q849.77-35.2 849.37-33.5L849.37-33.5Q849.32-33.3 849.12-32.43 848.92-31.55 848.92-30.85L848.92-30.85Q848.92-29.05 850.67-29.05L850.67-29.05 850.67-28.55Q848.82-28.55 847.62-30.08 846.42-31.6 846.42-33.8L846.42-33.8Q846.42-34.5 846.57-35.3L846.57-35.3Q846.72-37.1 846.72-37.25L846.72-37.25Q846.72-38.4 846.25-39.08 845.77-39.75 844.52-39.75L844.52-39.75Q843.27-39.75 842.65-38.18 842.02-36.6 842.02-32.15L842.02-32.15 842.02-23.4 845.97-23.4 845.97-22.65 842.02-22.65 842.02-3Q842.02-1.7 842.25-1.1 842.47-0.5 843.27-0.5L843.27-0.5Q843.67-0.5 844.52-0.75L844.52-0.75 844.52 0 836.27 0 836.27-0.75ZM867.46 0.5Q862.71 0.5 860.36-2.68 858.01-5.85 858.01-11.95L858.01-11.95Q858.01-15.15 859.01-17.98 860.01-20.8 862.14-22.58 864.26-24.35 867.36-24.35L867.36-24.35Q872.41-24.35 874.56-21.28 876.71-18.2 876.71-13.9L876.71-13.9Q876.71-13.15 876.61-11.95L876.61-11.95 876.56-11.5 861.51-11.5Q861.71-0.3 867.76-0.3L867.76-0.3Q870.46-0.3 871.76-1.95 873.06-3.6 873.06-5.7L873.06-5.7Q873.06-6.55 872.64-6.95 872.21-7.35 871.56-7.35L871.56-7.35Q871.06-7.35 870.69-7.08 870.31-6.8 870.31-6.4L870.31-6.4 869.86-6.4 869.86-7.75 876.21-7.75Q876.36-5.85 875.29-3.95 874.21-2.05 872.16-0.8 870.11 0.45 867.46 0.5L867.46 0.5ZM871.91-12.25Q872.81-12.25 872.99-12.43 873.16-12.6 873.21-13.3L873.21-13.3Q873.26-13.85 873.26-14.95L873.26-14.95Q873.26-18.75 871.86-21.25 870.46-23.75 867.16-23.75L867.16-23.75Q863.96-23.75 862.76-20.6 861.56-17.45 861.51-12.25L861.51-12.25 871.91-12.25Z" opacity="1" transform="matrix(1,0,0,1,0,0)" fill="#1b2609" class="undefined-text-1" data-fill-palette-color="secondary" id="text-1"></path></svg></g></svg></g></svg></g></svg></g><g><svg viewBox="0 0 70.49160830268262 70.49160830268262" height="70.49160830268262" width="70.49160830268262"><g><svg xmlns="http://www.w3.org/2000/svg" xmlns:xlink="http://www.w3.org/1999/xlink" version="1.1" x="0" y="0" viewBox="6 6 88 88" enable-background="new 0 0 100 100" xml:space="preserve" height="70.49160830268262" width="70.49160830268262" class="icon-icon-0" data-fill-palette-color="accent" id="icon-0"><path d="M94 38v-9.656L71.657 6H28.343L6 28.344V38h4v20H6v8h4v20H6v8h88v-8h-4V66h4v-8h-4V38H94zM31.657 14h36.686l16 16H15.657L31.657 14zM66 66h4v20h-4V66zM58 86H42V38h16V86zM34 66v20h-4V66H34zM18 38h16v20H18V38zM18 66h4v20h-4V66zM82 86h-4V66h4V86zM82 58H66V38h16V58z" fill="#4f4c54" data-fill-palette-color="accent"></path></svg></g></svg></g></svg></g></svg></g></svg></g><g><path d="M244.431 153.9A122.216 122.216 0 1 1 244.431 93.3L243.165 93.3A120.949 120.949 0 1 0 243.165 153.9L244.431 153.9" fill="#471aa0" stroke="transparent" data-fill-palette-color="tertiary"></path></g></svg></g></svg><rect width="395.52" height="247.2" fill="none" stroke="none" visibility="hidden"></rect></g></svg></g></svg>